# xmcd
# 
# Track frame offsets:
#     150
#     40187
#     84567
#     114557
# 
# Disc length: 2333
# 
# Revision: 1
# Processed by: cddbd v1.5.2PL0 Copyright (c) Steve Scherf et al.
# Submitted via: BonkEnc v1.0.6
# 
DISCID=29091b04
DTITLE=Sonny Rollins - A Night At The Village Vanguard Volume 2
DYEAR=1957
DGENRE=Jazz
TTITLE0=A Night In Tunisia
TTITLE1=I've Got You Under My Skin
TTITLE2=Softly As In A Morning Sunrise
TTITLE3=What Is This Thing Called Love
EXTD=YEAR: 1996
EXTT0=
EXTT1=
EXTT2=
EXTT3=
PLAYORDER=
